<svg data-name="Слой 1" xmlns="http://www.w3.org/2000/svg" viewBox="0 0 622.45 68.11"><path d="M191.44 64a13.81 13.81 0 0 1-5.18-3.85 13.56 13.56 0 0 1-2.66-5.41 25.66 25.66 0 0 1-.74-6.14V3.1a1.87 1.87 0 0 1 .5-1.51 2.51 2.51 0 0 1 1.61-.41h9.72a2.92 2.92 0 0 1 1.79.37 2.11 2.11 0 0 1 .41 1.56v44.5c0 2.32.57 3.88 1.7 4.67a7.55 7.55 0 0 0 4.45 1.19h23.3a2.21 2.21 0 0 1 1.37.31c.24.22.37.75.37 1.61v8.17c0 1.29-.58 1.93-1.74 1.93h-26.51a20.64 20.64 0 0 1-8.39-1.49zm98.3-35.51h-.55l-3.81 8.54-7.71 16.88a8 8 0 0 1-2.09 3.21 5.18 5.18 0 0 1-3.2.83h-5.1a4.7 4.7 0 0 1-3.2-.83 10.92 10.92 0 0 1-2-3.21l-5.8-11.93-5.76-12.38h-.55v34q0 1.28-.47 1.56a3.68 3.68 0 0 1-1.67.27h-9.47a3.76 3.76 0 0 1-1.58-.27q-.56-.28-.56-1.56V7.57q0-3.48 1.35-5c.9-1 2.44-1.46 4.6-1.46h5.39a6.33 6.33 0 0 1 3.86 1 8.93 8.93 0 0 1 2.37 3.35l10.13 22.39 5.76 13h.37l6.32-14.31 9.48-20.92a8.77 8.77 0 0 1 2.46-3.49 7.25 7.25 0 0 1 4.32-1h4.65a6.84 6.84 0 0 1 4.46 1.24c1 .82 1.49 2.4 1.49 4.72V63.6c0 .85-.16 1.38-.46 1.56a3.73 3.73 0 0 1-1.68.27h-9.25a3.54 3.54 0 0 1-1.55-.27c-.34-.19-.51-.71-.51-1.56zm60.08 23.68h-21l-3.54 11.65a2.64 2.64 0 0 1-.78 1.33 2.9 2.9 0 0 1-1.79.41h-10.78c-.67 0-1.08-.18-1.24-.55a2 2 0 0 1 0-1.29L329.77 6.2a10.54 10.54 0 0 1 1.05-2.53 4.74 4.74 0 0 1 3.21-2.29 11.68 11.68 0 0 1 2.43-.23h5.51a22.32 22.32 0 0 1 2.66.14 4.4 4.4 0 0 1 1.93.69 4.68 4.68 0 0 1 1.42 1.56 14.29 14.29 0 0 1 1.14 2.66l19.08 57.52a2 2 0 0 1 0 1.2c-.12.42-.52.64-1.19.64h-10.95a5.43 5.43 0 0 1-1.7-.23 1.62 1.62 0 0 1-1-1.24zm-17.7-11.29h14.4l-3.49-11.69-3.4-13.16h-.55l-3.49 13.16zm82.67-5.52a8.61 8.61 0 0 1 4.41 3.9 28.17 28.17 0 0 1 2.11 5.74l4.68 18.36a2.23 2.23 0 0 1 0 1.33c-.15.52-.59.78-1.33.78h-9.68a10 10 0 0 1-2.11-.23 2.11 2.11 0 0 1-1.56-1.61l-4.03-16.27q-1.19-4.5-3.53-6.24a10.6 10.6 0 0 0-6.47-1.74h-8.9V63.5a2.32 2.32 0 0 1-.37 1.61 3 3 0 0 1-1.75.32h-9.82a2.55 2.55 0 0 1-1.6-.41 1.87 1.87 0 0 1-.51-1.51V6.75a6.75 6.75 0 0 1 1.1-4.17c.74-.94 2.2-1.42 4.4-1.42h22.45q10 0 15.46 5t5.54 13.62a18.4 18.4 0 0 1-2.2 8.81 15.07 15.07 0 0 1-6.33 6.33zm-5.87-14.68a9.07 9.07 0 0 0-.36-2.48 6.13 6.13 0 0 0-3.67-4.08 9.76 9.76 0 0 0-3.95-.69h-12.47V28.1h12.2c2.69 0 4.74-.68 6.15-2.06a7.18 7.18 0 0 0 2.1-5.34zm66.8-7.6h-16.61v50.36a2.12 2.12 0 0 1-.42 1.56 2.9 2.9 0 0 1-1.79.37h-9.81a2.49 2.49 0 0 1-1.6-.41 1.86 1.86 0 0 1-.51-1.52V13.08h-16.24c-1.16 0-1.74-.61-1.74-1.84V3.08a2.31 2.31 0 0 1 .36-1.56 1.94 1.94 0 0 1 1.38-.37h47a2.1 2.1 0 0 1 1.46.37 2.28 2.28 0 0 1 .37 1.56v8.16a1.62 1.62 0 0 1-1.85 1.84zM173.14 56.89a10.34 10.34 0 0 1-1.43 5.55q-1.43 2.31-5.32 3.33a29.1 29.1 0 0 1-4.07.69q-2.22.23-4.44.32t-4.16.14h-3.14a60.27 60.27 0 0 1-13.63-1.34 20.73 20.73 0 0 1-9.29-4.58 18.68 18.68 0 0 1-5.27-8.6 46.26 46.26 0 0 1-1.66-13.49l-.09-35.86a1.8 1.8 0 0 1 .56-1.53 2.59 2.59 0 0 1 1.57-.41h9.89a3 3 0 0 1 1.81.37 2.14 2.14 0 0 1 .41 1.57v36.69a29.92 29.92 0 0 0 .65 6.61 10.29 10.29 0 0 0 2.31 4.67 9.77 9.77 0 0 0 4.49 2.73 24.9 24.9 0 0 0 7.25.88h1.76l2.45-.09c.89 0 1.82-.1 2.77-.19a20.79 20.79 0 0 0 2.63-.42V3.1a1.9 1.9 0 0 1 .51-1.53 2.56 2.56 0 0 1 1.62-.41h9.8q1.39 0 1.71.37a2.6 2.6 0 0 1 .32 1.57zm321.05 1.66a7.9 7.9 0 0 1-2.43 5.87 8.24 8.24 0 0 1-6 2.39 8.5 8.5 0 0 1-3.3-.65 8.63 8.63 0 0 1-2.71-1.74 8.39 8.39 0 0 1-1.83-2.61 8 8 0 0 1 0-6.51 8.33 8.33 0 0 1 1.83-2.62 8.72 8.72 0 0 1 2.71-1.74 8.56 8.56 0 0 1 3.3-.65 8.25 8.25 0 0 1 6 2.39 7.9 7.9 0 0 1 2.43 5.87zm54.78-22.92a8.64 8.64 0 0 1 4.44 3.93 28.38 28.38 0 0 1 2.13 5.77l4.74 18.49a2.26 2.26 0 0 1 0 1.34c-.15.53-.6.79-1.34.79h-9.7a10.33 10.33 0 0 1-2.13-.23 2.15 2.15 0 0 1-1.57-1.62l-4.07-16.36q-1.2-4.53-3.56-6.29a10.69 10.69 0 0 0-6.52-1.76h-9V64c0 .86-.12 1.4-.37 1.62a3 3 0 0 1-1.76.32h-9.89a2.54 2.54 0 0 1-1.62-.41 1.89 1.89 0 0 1-.51-1.52V6.79a6.8 6.8 0 0 1 1.11-4.21q1.11-1.43 4.44-1.43h22.65q10.07 0 15.57 5.08t5.5 13.68a18.57 18.57 0 0 1-2.22 8.87 15.17 15.17 0 0 1-6.38 6.38zm-5.92-14.79a9.27 9.27 0 0 0-.37-2.5 6.23 6.23 0 0 0-3.7-4.11 9.9 9.9 0 0 0-4-.69h-12.53v14.82h12.29q4.06 0 6.19-2.08a7.22 7.22 0 0 0 2.13-5.44zm79.4 36.14a10.31 10.31 0 0 1-1.43 5.54q-1.43 2.32-5.31 3.33a28.71 28.71 0 0 1-4.07.69q-2.22.23-4.44.33t-4.16.14h-3.14a60.16 60.16 0 0 1-13.62-1.3 20.73 20.73 0 0 1-9.29-4.58 18.69 18.69 0 0 1-5.27-8.59 46.34 46.34 0 0 1-1.66-13.49l-.09-35.86a1.79 1.79 0 0 1 .56-1.52 2.57 2.57 0 0 1 1.57-.42h9.89a3 3 0 0 1 1.8.37 2.12 2.12 0 0 1 .41 1.57v36.69a29.72 29.72 0 0 0 .65 6.61 10.24 10.24 0 0 0 2.31 4.67 9.76 9.76 0 0 0 4.48 2.72 24.84 24.84 0 0 0 7.26.88h1.76l2.45-.09c.89 0 1.82-.09 2.77-.19a20.46 20.46 0 0 0 2.64-.41V3.19a1.88 1.88 0 0 1 .51-1.52 2.54 2.54 0 0 1 1.62-.42h9.79c.93 0 1.5.12 1.71.37a2.59 2.59 0 0 1 .32 1.57zM56.28.01h-.72a37.64 37.64 0 0 0-13 2.39 43.74 43.74 0 0 0-11.08 6.16 68.54 68.54 0 0 0-16.25 18.39C6.68 40.53 2.01 56.29.01 66.71h19.7a.94.94 0 0 0 1-.85 103.2 103.2 0 0 1 11.83-28 48.44 48.44 0 0 1 11.26-13c3.9-3 7.78-4.41 11.8-4.41h.68a13.57 13.57 0 0 1 13 13.53 13.55 13.55 0 0 1-27.09 0 12.15 12.15 0 0 1 .21-2.18c0-.1-.09-.15-.16-.07a53.87 53.87 0 0 0-6.22 8.2 89.48 89.48 0 0 0-7.3 14.59.32.32 0 0 0 0 .2 34 34 0 0 0 61-20.73A34.08 34.08 0 0 0 56.28.01zM.16 50.36a115.11 115.11 0 0 1 11.69-25.49 83.4 83.4 0 0 1 8.83-11.7.34.34 0 0 0 .1-.27V2.6a1.14 1.14 0 0 0-1.14-1.14H1.13A1.14 1.14 0 0 0 0 2.6v47.75c0 .17.13.09.16.01z" fill="#fff"/></svg>