<svg xmlns="http://www.w3.org/2000/svg" viewBox="0 0 170 170"><g fill="#FFF"><path d="M16.3 59.4c2.2 1.5 8.6 6 19.4 13.5 10.8 7.5 19.1 13.3 24.9 17.3.6.4 2 1.4 4 2.9 2.1 1.5 3.8 2.7 5.1 3.6 1.4.9 3 1.9 4.9 3.1 1.9 1.1 3.7 2 5.5 2.6 1.7.6 3.3.9 4.7.9H85.1c1.5 0 3-.3 4.7-.9 1.7-.6 3.5-1.4 5.5-2.6 1.9-1.1 3.6-2.2 4.9-3.1 1.4-.9 3.1-2.1 5.1-3.6 2.1-1.5 3.4-2.5 4-2.9 5.8-4 20.6-14.3 44.4-30.8 4.6-3.2 8.5-7.1 11.6-11.7 3.1-4.6 4.6-9.3 4.6-14.3 0-4.2-1.5-7.7-4.5-10.7-3-3-6.6-4.5-10.7-4.5H15.2c-4.9 0-8.6 1.6-11.2 4.9-2.7 3.3-4 7.4-4 12.4 0 4 1.7 8.3 5.2 12.9 3.5 4.7 7.2 8.3 11.1 11z"/><path d="M160.5 69.5c-20.7 14-36.5 24.9-47.2 32.7-3.6 2.7-6.5 4.7-8.8 6.2-2.2 1.5-5.2 3-9 4.6-3.7 1.6-7.2 2.3-10.4 2.3h-.2c-3.2 0-6.7-.8-10.4-2.3-3.7-1.5-6.7-3.1-9-4.6-2.2-1.5-5.2-3.6-8.8-6.2C48.2 96 32.5 85.1 9.6 69.5 6 67.1 2.8 64.4 0 61.3v75.3c0 4.2 1.5 7.7 4.5 10.7 3 3 6.5 4.5 10.7 4.5h139.6c4.2 0 7.7-1.5 10.7-4.5 3-3 4.5-6.5 4.5-10.7V61.3c-2.7 3-5.9 5.8-9.5 8.2z"/></g></svg>