<svg version="1.1" width="22" height="19" xmlns="http://www.w3.org/2000/svg" xmlns:xlink="http://www.w3.org/1999/xlink" x="0px" y="0px"
	 viewBox="0 0 61.4 32.6" enable-background="new 0 0 61.4 32.6" xml:space="preserve">
<path fill="#FFFFFF" d="M33.5,9.3c-0.3-0.3-0.7-0.3-1,0c-0.3,0.3-0.3,0.7,0,0.9l4.9,4.9h-16c-0.4,0-0.7,0.3-0.7,0.7s0.3,0.7,0.7,0.7
	h16l-4.9,4.8c-0.3,0.3-0.3,0.7,0,1c0.3,0.3,0.7,0.3,1,0l6-6c0.3-0.3,0.3-0.7,0-1L33.5,9.3z"/>
<path fill="none" stroke="#FFFFFF" stroke-miterlimit="10" d="M45.3,32H16.2c-8.6,0-15.7-7-15.7-15.7v0c0-8.6,7-15.7,15.7-15.7h29.2
	C54,0.7,61,7.7,61,16.3v0C61,24.9,54,32,45.3,32z"/>
</svg>
