<svg xmlns="http://www.w3.org/2000/svg" viewBox="0 0 16.1 10"><path fill="#FFF" d="M3.5 1c.4 1.2 1 2.3 1.8 3.3.1.1.2.3.3.4.1.1.3.1.4 0 0 0 .1-.1.1-.2.1-.3.1-.7.2-1V1.7c0-.5-.3-.9-.8-.9-.2 0-.2-.2-.1-.4.2-.2.6-.4.9-.4h1.8c.2 0 .5 0 .7.1.3.1.5.3.5.6v.5c0 .7-.1 1.5-.1 2.2 0 .3 0 .6.1.9.1.4.3.5.6.2l.9-1.2c.5-.8.9-1.6 1.2-2.5 0-.3.3-.6.7-.5h2.5c.1 0 .3 0 .4.1.4.2.5.4.5.6-.1.6-.4 1.1-.7 1.6-.5.8-1 1.5-1.6 2.3-.1.1-.1.2-.2.3-.2.3-.2.7.1.9.4.5.9 1 1.4 1.5l.9 1.2c.3.3.2.7-.1 1-.1.1-.3.2-.4.2-.4.1-2.2 0-2.3 0-.5 0-.9-.2-1.3-.5-.4-.4-.7-.8-1.1-1.3l-.4-.4c-.1-.2-.4-.2-.6-.1-.1.1-.1.2-.1.3-.1.4-.2.8-.3 1.3 0 .4-.3.7-.7.7-1.1 0-2.2-.2-3.3-.8-.8-.5-1.6-1.2-2.2-2-1-1.4-1.8-2.8-2.4-4.3C.7 2.7 0 1.1 0 1-.1.8 0 .5.2.4.3.3 2.7.4 2.7.4c.4 0 .7.3.8.6z"/></svg>